<svg width="28" height="28" viewBox="0 0 28 28" fill="none" xmlns="http://www.w3.org/2000/svg">
<path fill-rule="evenodd" clip-rule="evenodd" d="M26.2501 14C26.2501 13.7679 26.1579 13.5454 25.9938 13.3813C25.8297 13.2172 25.6072 13.125 25.3751 13.125H4.73735L10.2446 7.61951C10.326 7.53815 10.3905 7.44157 10.4345 7.33528C10.4785 7.22898 10.5012 7.11506 10.5012 7.00001C10.5012 6.88495 10.4785 6.77103 10.4345 6.66474C10.3905 6.55844 10.326 6.46186 10.2446 6.38051C10.1632 6.29915 10.0667 6.23462 9.96037 6.19059C9.85408 6.14656 9.74015 6.1239 9.6251 6.1239C9.51005 6.1239 9.39612 6.14656 9.28983 6.19059C9.18353 6.23462 9.08695 6.29915 9.0056 6.38051L2.0056 13.3805C1.92411 13.4618 1.85946 13.5583 1.81535 13.6646C1.77124 13.771 1.74854 13.8849 1.74854 14C1.74854 14.1151 1.77124 14.2291 1.81535 14.3354C1.85946 14.4417 1.92411 14.5382 2.0056 14.6195L9.0056 21.6195C9.08695 21.7009 9.18353 21.7654 9.28983 21.8094C9.39612 21.8535 9.51005 21.8761 9.6251 21.8761C9.74015 21.8761 9.85408 21.8535 9.96037 21.8094C10.0667 21.7654 10.1632 21.7009 10.2446 21.6195C10.326 21.5382 10.3905 21.4416 10.4345 21.3353C10.4785 21.229 10.5012 21.1151 10.5012 21C10.5012 20.885 10.4785 20.771 10.4345 20.6647C10.3905 20.5584 10.326 20.4619 10.2446 20.3805L4.73735 14.875H25.3751C25.6072 14.875 25.8297 14.7828 25.9938 14.6187C26.1579 14.4546 26.2501 14.2321 26.2501 14Z" fill="#212529"/>
</svg>
