<svg width="28" height="28" viewBox="0 0 28 28" fill="none" xmlns="http://www.w3.org/2000/svg">
<path fill-rule="evenodd" clip-rule="evenodd" d="M1.7499 14C1.7499 13.7679 1.84209 13.5454 2.00618 13.3813C2.17028 13.2172 2.39284 13.125 2.6249 13.125H23.2627L17.7554 7.61951C17.674 7.53815 17.6095 7.44157 17.5655 7.33528C17.5215 7.22898 17.4988 7.11506 17.4988 7.00001C17.4988 6.88495 17.5215 6.77103 17.5655 6.66474C17.6095 6.55844 17.674 6.46186 17.7554 6.38051C17.8368 6.29915 17.9333 6.23462 18.0396 6.19059C18.1459 6.14656 18.2598 6.1239 18.3749 6.1239C18.49 6.1239 18.6039 6.14656 18.7102 6.19059C18.8165 6.23462 18.913 6.29915 18.9944 6.38051L25.9944 13.3805C26.0759 13.4618 26.1405 13.5583 26.1846 13.6646C26.2288 13.771 26.2515 13.8849 26.2515 14C26.2515 14.1151 26.2288 14.2291 26.1846 14.3354C26.1405 14.4417 26.0759 14.5382 25.9944 14.6195L18.9944 21.6195C18.913 21.7009 18.8165 21.7654 18.7102 21.8094C18.6039 21.8535 18.49 21.8761 18.3749 21.8761C18.2598 21.8761 18.1459 21.8535 18.0396 21.8094C17.9333 21.7654 17.8368 21.7009 17.7554 21.6195C17.674 21.5382 17.6095 21.4416 17.5655 21.3353C17.5215 21.229 17.4988 21.1151 17.4988 21C17.4988 20.885 17.5215 20.771 17.5655 20.6647C17.6095 20.5584 17.674 20.4619 17.7554 20.3805L23.2627 14.875H2.6249C2.39284 14.875 2.17028 14.7828 2.00618 14.6187C1.84209 14.4546 1.7499 14.2321 1.7499 14Z" fill="#212529"/>
</svg>
