<svg width="110" height="110" viewBox="0 0 110 110" fill="none" xmlns="http://www.w3.org/2000/svg">
<g clip-path="url(#clip0_2309_1074)">
<path d="M75.625 41.25C75.625 46.7201 73.452 51.9661 69.5841 55.8341C65.7161 59.702 60.4701 61.875 55 61.875C49.5299 61.875 44.2839 59.702 40.4159 55.8341C36.548 51.9661 34.375 46.7201 34.375 41.25C34.375 35.7799 36.548 30.5339 40.4159 26.6659C44.2839 22.798 49.5299 20.625 55 20.625C60.4701 20.625 65.7161 22.798 69.5841 26.6659C73.452 30.5339 75.625 35.7799 75.625 41.25Z" fill="#00C2FF"/>
<path fill-rule="evenodd" clip-rule="evenodd" d="M0 55C0 40.4131 5.79463 26.4236 16.1091 16.1091C26.4236 5.79463 40.4131 0 55 0C69.5869 0 83.5764 5.79463 93.8909 16.1091C104.205 26.4236 110 40.4131 110 55C110 69.5869 104.205 83.5764 93.8909 93.8909C83.5764 104.205 69.5869 110 55 110C40.4131 110 26.4236 104.205 16.1091 93.8909C5.79463 83.5764 0 69.5869 0 55ZM55 6.875C45.9372 6.87548 37.0588 9.43499 29.3865 14.2589C21.7143 19.0829 15.5601 25.9752 11.6323 34.1426C7.70444 42.31 6.16266 51.4205 7.18436 60.4255C8.20607 69.4305 11.7497 77.9639 17.4075 85.0437C22.2888 77.1787 33.0344 68.75 55 68.75C76.9656 68.75 87.7044 77.1719 92.5925 85.0437C98.2503 77.9639 101.794 69.4305 102.816 60.4255C103.837 51.4205 102.296 42.31 98.3677 34.1426C94.4399 25.9752 88.2857 19.0829 80.6135 14.2589C72.9412 9.43499 64.0628 6.87548 55 6.875Z" fill="#00C2FF"/>
</g>
<defs>
<clipPath id="clip0_2309_1074">
<rect width="110" height="110" fill="white"/>
</clipPath>
</defs>
</svg>
